PathFileType	4	(X/Y/Z)	C:/Users/opensim2020/Desktop/walking_exp_matlab/subject03_walking12_straight_01.trc																																																																																																																																														
DataRate	CameraRate	NumFrames	NumMarkers	Units	OrigDataRate	OrigDataStartFrame	OrigNumFrames																																																																																																																																										
100	100	6	48	mm	100	555	211																																																																																																																																										
Frame#	Time	LFHD			RFHD			LBHD			RBHD			C7			T10			CLAV			STRN			RBAK			LSHO			LUPA			LELB			LFRM			LWRA			LWRB			LFIN			RSHO			RUPA			RELB			RFRM			RWRA			RWRB			RFIN			LASI			RASI			LPSI			RPSI			LTHI			LKNE			LTIB			LANK			LHEE			LTOE			RTHI			RKNE			RTIB			RANK			RHEE			RTOE			*39			*40			*41			*42			*43			*44			*45			*46			*47		
		X1	Y1	Z1	X2	Y2	Z2	X3	Y3	Z3	X4	Y4	Z4	X5	Y5	Z5	X6	Y6	Z6	X7	Y7	Z7	X8	Y8	Z8	X9	Y9	Z9	X10	Y10	Z10	X11	Y11	Z11	X12	Y12	Z12	X13	Y13	Z13	X14	Y14	Z14	X15	Y15	Z15	X16	Y16	Z16	X17	Y17	Z17	X18	Y18	Z18	X19	Y19	Z19	X20	Y20	Z20	X21	Y21	Z21	X22	Y22	Z22	X23	Y23	Z23	X24	Y24	Z24	X25	Y25	Z25	X26	Y26	Z26	X27	Y27	Z27	X28	Y28	Z28	X29	Y29	Z29	X30	Y30	Z30	X31	Y31	Z31	X32	Y32	Z32	X33	Y33	Z33	X34	Y34	Z34	X35	Y35	Z35	X36	Y36	Z36	X37	Y37	Z37	X38	Y38	Z38	X39	Y39	Z39	X40	Y40	Z40	X41	Y41	Z41	X42	Y42	Z42	X43	Y43	Z43	X44	Y44	Z44	X45	Y45	Z45	X46	Y46	Z46	X47	Y47	Z47	X48	Y48	Z48
																																																																																																																																																	
1	0	-1310.34656	1608.08594	-1017.5351	-1331.21741	1606.84436	-886.96552	-1436.50244	1560.6792	-1034.46265	-1452.4071	1559.09912	-904.08411	-1477.01208	1407.66272	-988.66754	-1542.82959	1103.81189	-992.40466	-1362.61633	1320.96375	-972.12067	-1335.76147	1150.5824	-978.91498	-1556.90771	1237.79858	-905.26862	-1382.6582	1363.18652	-1131.64636	-1374.83325	1168.92224	-1203.18396	-1357.04431	1046.43518	-1211.79016	-1326.76953	919.90088	-1207.03992	-1312.03906	800.61407	-1176.58386	-1321.92749	807.46771	-1230.75439	-1311.38916	722.53198	-1221.73267	-1429.8645	1349.24316	-820.99463	-1462.33203	1131.40625	-743.53809	-1456.08167	1019.50708	-723.58362	-1452.26147	882.79272	-714.58789	-1426.37732	783.29663	-741.15295	-1463.47559	783.22443	-702.1261	-1446.67529	710.68652	-704.71094	-1400.39307	917.01971	-1101.37402	-1404.56201	927.1438	-865.96851	-1559.96375	966.87885	-1051.46301	-1558.90552	972.80548	-905.30878	-1514.97437	629.47089	-1143.90454	-1537.91663	457.40936	-1105.85535	-1627.3396	276.99866	-1111.78027	-1681.68042	63.12483	-1075.57239	-1718.30566	28.50644	-1039.03552	-1531.05298	30.87863	-1072.01721	-1391.98694	646.83502	-822.24994	-1321.16541	482.19138	-859.3902	-1392.48303	301.53162	-867.93903	-1460.56274	99.15395	-923.63354	-1508.66882	75.32829	-978.88763	-1331.94019	46.43581	-935.93768	NaN	NaN	NaN	NaN	NaN	NaN	NaN	NaN	NaN	NaN	NaN	NaN	NaN	NaN	NaN	NaN	NaN	NaN	NaN	NaN	NaN	NaN	NaN	NaN	NaN	NaN	NaN
2	0.01	-1305.82886	1607.3623	-1019.46826	-1326.63428	1605.99597	-888.63043	-1431.51855	1559.29041	-1036.22595	-1446.75208	1557.66272	-906.10852	-1471.43958	1406.36072	-990.57965	-1535.15271	1101.22229	-995.60773	-1357.50403	1319.66748	-974.81085	-1330.12317	1149.68323	-980.20306	-1551.72278	1236.65063	-907.61456	-1376.57959	1362.06653	-1133.16125	-1367.03357	1167.98999	-1204.79663	-1346.89233	1045.97424	-1213.25952	-1313.06995	919.97729	-1207.15601	-1295.13025	801.83997	-1175.15527	-1305.33154	807.8045	-1229.79346	-1291.67957	723.47565	-1219.43872	-1425.23315	1348.14771	-822.78619	-1459.50525	1130.94702	-744.80469	-1453.9115	1018.92377	-724.57281	-1451.77686	882.10663	-715.30322	-1427.78931	782.0625	-742.12274	-1464.19678	782.70178	-702.45404	-1448.58508	709.77625	-705.40308	-1394.48438	915.71472	-1103.2345	-1399.54016	926.47339	-867.20129	-1554.33533	965.78662	-1053.28235	-1553.78369	971.98865	-907.11182	-1512.51538	627.74304	-1144.23584	-1537.17859	456.082	-1105.6908	-1625.97974	276.68826	-1112.02795	-1681.9248	62.76686	-1075.41162	-1718.2699	28.70337	-1039.14563	-1530.5376	30.82087	-1072.34131	-1384.91309	647.09955	-823.21436	-1313.36279	482.74033	-860.58313	-1380.05811	299.97784	-868.46729	-1441.21436	95.22561	-923.75171	-1488.30212	69.87778	-979.35455	-1311.01135	46.01564	-935.36572	NaN	NaN	NaN	NaN	NaN	NaN	NaN	NaN	NaN	NaN	NaN	NaN	NaN	NaN	NaN	NaN	NaN	NaN	NaN	NaN	NaN	NaN	NaN	NaN	NaN	NaN	NaN
3	0.02	-1300.89453	1606.41028	-1020.99573	-1321.82764	1605.08594	-890.1889	-1426.38757	1557.77612	-1037.86157	-1442.5332	1556.22864	-907.55969	-1465.84131	1405.21191	-992.44922	-1529.32922	1099.97485	-997.52625	-1351.81238	1318.44751	-975.52728	-1324.38232	1148.49988	-981.46606	-1546.29626	1235.45154	-909.85876	-1370.32019	1360.75684	-1134.6051	-1358.93848	1166.66138	-1205.90649	-1336.83704	1045.31409	-1214.45239	-1299.69312	920.44122	-1207.17334	-1278.23938	803.30066	-1173.75439	-1288.7063	808.29852	-1228.38757	-1271.89868	724.78546	-1217.05188	-1420.2981	1346.98975	-824.50049	-1456.13049	1130.26135	-746.12	-1450.9834	1018.05615	-725.72607	-1450.64832	881.23798	-716.16644	-1428.49927	780.76385	-743.27075	-1464.64636	782.20618	-702.78198	-1450.38464	708.65497	-706.31439	-1388.65076	913.9812	-1104.43127	-1394.32202	925.67584	-868.44757	-1548.73425	964.5661	-1054.97461	-1548.48364	970.95441	-908.87701	-1507.6637	626.91815	-1144.6543	-1534.04773	455.65741	-1105.61365	-1624.3103	276.35291	-1112.23645	-1681.13696	63.05629	-1075.57996	-1718.22864	28.98316	-1039.15857	-1530.23242	30.52048	-1072.31885	-1377.75122	647.21777	-823.9931	-1305.58655	483.20758	-861.66888	-1367.40381	298.38141	-868.66522	-1421.62305	91.62562	-923.604	-1467.45239	64.69402	-979.36267	-1289.68811	45.65053	-934.44684	NaN	NaN	NaN	NaN	NaN	NaN	NaN	NaN	NaN	NaN	NaN	NaN	NaN	NaN	NaN	NaN	NaN	NaN	NaN	NaN	NaN	NaN	NaN	NaN	NaN	NaN	NaN
4	0.03	-1295.59729	1605.20203	-1021.9953	-1316.93787	1604.13428	-891.67877	-1421.10388	1556.18518	-1039.41724	-1437.35254	1554.68896	-909.12231	-1459.94653	1403.98535	-994.23438	-1525.922	1100.25867	-998.26978	-1345.98804	1317.32141	-976.23566	-1318.76746	1147.22754	-982.22699	-1540.66492	1234.16919	-911.97552	-1363.90515	1359.39319	-1135.93237	-1351.22437	1165.8916	-1207.84204	-1326.80896	1044.55505	-1215.65198	-1286.47058	920.91589	-1206.96118	-1261.52698	804.95148	-1172.20984	-1272.23413	808.88434	-1226.79517	-1251.56519	726.96838	-1214.47717	-1415.203	1345.7312	-826.07343	-1452.17664	1129.37354	-747.3819	-1447.53064	1017.04932	-726.89722	-1448.96899	880.26605	-717.01135	-1428.86328	779.26752	-744.32996	-1464.12769	781.47974	-703.08716	-1451.36328	707.29865	-707.28406	-1383.49646	912.27594	-1104.92114	-1388.79639	924.90332	-869.60156	-1542.62598	963.1745	-1056.73499	-1543.12512	969.78577	-910.52814	-1502.47729	625.60004	-1145.46216	-1530.58228	454.73969	-1105.92566	-1622.56653	275.99466	-1112.37061	-1678.61255	64.03626	-1076.2406	-1718.21179	29.23259	-1039.17993	-1529.91223	30.31935	-1072.35962	-1370.41968	647.17072	-824.50128	-1297.84729	483.54791	-862.52075	-1354.40259	296.8179	-868.7392	-1400.96887	87.94678	-922.99939	-1446.30225	59.83184	-978.84863	-1268.22083	45.43669	-933.27252	NaN	NaN	NaN	NaN	NaN	NaN	NaN	NaN	NaN	NaN	NaN	NaN	NaN	NaN	NaN	NaN	NaN	NaN	NaN	NaN	NaN	NaN	NaN	NaN	NaN	NaN	NaN
5	0.04	-1290.56458	1604.19495	-1023.8725	-1311.76086	1602.99243	-893.06885	-1415.62524	1554.53467	-1040.87146	-1431.95129	1553.04871	-910.55829	-1453.99646	1402.6095	-995.9469	-1517.39404	1097.30066	-1001.26532	-1340.17297	1315.88403	-978.12195	-1312.92932	1145.71631	-983.1803	-1534.82434	1232.81165	-913.97327	-1357.24585	1357.84863	-1137.13354	-1343.05554	1164.75232	-1209.15479	-1316.98083	1043.81384	-1216.89294	-1273.25073	921.26025	-1207.18176	-1244.94324	806.85046	-1170.65002	-1255.96021	809.65887	-1225.2063	-1231.75696	729.0224	-1211.81165	-1409.672	1344.19934	-827.42749	-1447.43799	1128.2334	-748.8147	-1443.45386	1015.8598	-728.17987	-1446.73047	879.11041	-717.89758	-1428.68628	777.6416	-745.36761	-1463.03015	780.53229	-703.45496	-1452.08801	705.67157	-708.64758	-1377.14722	910.57996	-1106.52563	-1383.15234	923.8996	-870.77863	-1537.03711	961.43536	-1058.09033	-1537.53967	968.48199	-912.11108	-1497.57996	624.1178	-1146.15625	-1528.79736	453.32657	-1105.95862	-1620.72803	275.64697	-1112.53674	-1678.40283	64.05476	-1075.97693	-1718.10754	29.55368	-1039.21545	-1529.66455	29.99006	-1072.33728	-1363.2467	646.883	-825.21515	-1290.0874	483.73071	-863.19269	-1341.3606	295.39191	-868.41113	-1380.90222	84.75131	-921.99817	-1425.10022	55.42865	-977.76172	-1246.64709	45.34303	-931.9787	NaN	NaN	NaN	NaN	NaN	NaN	NaN	NaN	NaN	NaN	NaN	NaN	NaN	NaN	NaN	NaN	NaN	NaN	NaN	NaN	NaN	NaN	NaN	NaN	NaN	NaN	NaN
6	0.05	-1285.32837	1603.07996	-1025.49939	-1306.45154	1601.7113	-894.33087	-1409.95679	1552.73962	-1042.20837	-1426.37744	1551.28235	-911.92468	-1447.56946	1400.99084	-997.40027	-1513.6665	1097.57117	-1001.89856	-1334.03027	1314.09607	-979.55701	-1306.79285	1144.20276	-984.09125	-1528.7843	1231.37817	-915.85107	-1350.48376	1356.30652	-1138.25696	-1334.34619	1163.19812	-1209.76282	-1307.1051	1043.00769	-1217.94482	-1260.31104	921.72363	-1206.797	-1228.50452	808.91992	-1168.93372	-1239.9104	810.51929	-1223.44055	-1212.22253	731.39148	-1209.03613	-1404.07922	1342.74927	-828.80707	-1442.26501	1126.90833	-750.14172	-1438.90894	1014.47321	-729.49457	-1443.93457	877.8205	-718.74921	-1427.76318	775.93671	-746.40527	-1461.44812	779.53461	-703.74597	-1452.15198	704.06122	-709.64502	-1371.33997	908.95764	-1107.24927	-1377.28418	922.91785	-871.96912	-1531.18738	959.57605	-1059.38171	-1531.76428	967.06732	-913.56329	-1492.65625	622.76392	-1146.2926	-1525.7876	452.02386	-1106.14795	-1618.68433	275.25403	-1112.7019	-1677.97083	64.12047	-1075.94849	-1718.04395	29.86571	-1039.19543	-1529.25842	29.77101	-1072.29846	-1356.30371	646.29156	-825.7796	-1282.33081	483.74524	-863.76312	-1328.06665	294.06552	-867.87317	-1360.22095	81.89727	-920.49463	-1403.89111	51.44479	-976.2052	-1225.14697	45.30952	-930.68677	NaN	NaN	NaN	NaN	NaN	NaN	NaN	NaN	NaN	NaN	NaN	NaN	NaN	NaN	NaN	NaN	NaN	NaN	NaN	NaN	NaN	NaN	NaN	NaN	NaN	NaN	NaN
